<svg xmlns="http://www.w3.org/2000/svg" xmlns:svg="http://www.w3.org/2000/svg" xmlns:xlink="http://www.w3.org/1999/xlink" id="svg1272" width="32" height="20" version="1.1" viewBox="0 0 8.467 5.292"><defs id="defs1266"><linearGradient id="linearGradient1980" x1="9.315" x2="9.315" y1="19.048" y2="1.026" gradientUnits="userSpaceOnUse" spreadMethod="pad"><stop style="stop-color:#80766b;stop-opacity:1" id="stop1976" offset="0" stop-color="#888"/><stop id="stop1978" offset="1" stop-color="#bfbfbe" style="stop-color:#a89a8c;stop-opacity:1"/></linearGradient><linearGradient id="linearGradient1974" x1="9.315" x2="9.315" y1="19.048" y2="1.026" gradientUnits="userSpaceOnUse" spreadMethod="pad"><stop style="stop-color:#80766b;stop-opacity:1" id="stop1970" offset="0" stop-color="#888"/><stop id="stop1972" offset="1" stop-color="#bfbfbe" style="stop-color:#a89a8c;stop-opacity:1"/></linearGradient><linearGradient id="linearGradient841" x1="9.315" x2="9.315" y1="19.048" y2="1.026" gradientUnits="userSpaceOnUse" spreadMethod="pad"><stop style="stop-color:#80766b;stop-opacity:1" id="stop837" offset="0" stop-color="#888"/><stop style="stop-color:#a89a8c;stop-opacity:1" id="stop839" offset="1" stop-color="#bfbfbe"/></linearGradient><linearGradient id="a" x1="4.767" x2="4.767" y1="19.048" y2="1.026" gradientUnits="userSpaceOnUse"><stop id="stop2" offset="0" stop-color="#888"/><stop id="stop4" offset="1" stop-color="#bfbfbe"/></linearGradient><linearGradient id="a-9" x1="4.712" x2="4.712" y1="19.048" y2="1.026" gradientUnits="userSpaceOnUse"><stop id="stop2-1" offset="0" stop-color="#888"/><stop id="stop4-2" offset="1" stop-color="#bfbfbe"/></linearGradient><linearGradient id="c" x1="7.699" x2="7.699" y1="19.048" y2="1.026" gradientTransform="matrix(0.26458333,0,0,0.26458333,1.3333333e-8,291.70833)" gradientUnits="userSpaceOnUse" xlink:href="#linearGradient1980"/><linearGradient id="a-0"><stop id="stop2-6" offset="0" stop-color="#888"/><stop id="stop4-26" offset="1" stop-color="#bfbfbe"/></linearGradient><linearGradient id="b" x1="24.427" x2="24.427" y1="19.048" y2="1.026" gradientTransform="matrix(0.26458333,0,0,0.26458333,1.3333333e-8,291.70833)" gradientUnits="userSpaceOnUse" xlink:href="#linearGradient1980"/><linearGradient id="b-9" x1="-11.209" x2="-11.209" y1="19.048" y2="1.026" gradientTransform="matrix(0.26458333,0,0,0.26458333,-2.7083332e-8,291.70831)" gradientUnits="userSpaceOnUse" xlink:href="#a-9"><stop id="stop7" offset="0" stop-color="#888"/><stop id="stop9" offset="1" stop-color="#bfbfbe"/></linearGradient><linearGradient id="c-2" x1="2.871" x2="2.871" y1="19.048" y2="1.026" gradientUnits="userSpaceOnUse"><stop id="stop2-0" offset="0" stop-color="#888"/><stop id="stop4-23" offset="1" stop-color="#bfbfbe"/></linearGradient><linearGradient id="e" x1="1.586" x2="1.586" y1="19" y2="1" gradientUnits="userSpaceOnUse" xlink:href="#a-0"/><linearGradient id="f" x1="8.199" x2="8.199" y1="24.412" y2="5.212" gradientUnits="userSpaceOnUse" xlink:href="#a-0"/><linearGradient id="linearGradient2510" x1="1.586" x2="1.586" y1="19" y2="1" gradientTransform="matrix(0.18110994,0,0,0.18062575,3.2891087,291.69973)" gradientUnits="userSpaceOnUse" xlink:href="#linearGradient1980"/><linearGradient id="linearGradient2514" x1="1.586" x2="1.586" y1="19" y2="1" gradientTransform="matrix(0.26458333,0,0,0.26458333,1.1958333e-8,291.70833)" gradientUnits="userSpaceOnUse" xlink:href="#linearGradient1980"/><linearGradient id="linearGradient2541" x1="-.265" x2="3.969" y1="294.354" y2="294.354" gradientTransform="rotate(-90,1.5875,294.35417)" gradientUnits="userSpaceOnUse" xlink:href="#linearGradient1980"/></defs><metadata id="metadata1269"/><g id="layer1" transform="translate(0,-291.70833)"><path id="path11" d="m 6.3942386,293.93624 q 0,0.10701 -0.037968,0.1959 -0.036316,0.0889 -0.1072986,0.16793 -0.069331,0.0774 -0.3202385,0.25848 -0.2195415,0.15804 -0.2278001,0.33255 H 5.2601843 q 0.0099,-0.16958 0.097394,-0.30293 0.087489,-0.135 0.2476135,-0.24531 0.1865251,-0.12677 0.2542059,-0.20743 0.067681,-0.0823 0.067681,-0.17945 0,-0.12677 -0.1006953,-0.2025 -0.1006953,-0.0774 -0.2641126,-0.0774 -0.1667244,0 -0.2806299,0.0971 -0.1122501,0.0971 -0.1320599,0.25683 l -0.4704693,-0.0198 q 0.044569,-0.33421 0.2756674,-0.52024 0.2310963,-0.18602 0.6008685,-0.18602 0.3829751,0 0.6107751,0.17122 0.2278001,0.17122 0.2278001,0.46097 z m -1.147259,1.62328 v -0.4445 h 0.4770617 v 0.4445 z" style="fill:url(#linearGradient2510);fill-opacity:1;stroke-width:.26459134"/><path style="color:#000001;font-variant-ligatures:normal;font-variant-position:normal;font-variant-caps:normal;font-variant-numeric:normal;font-variant-alternates:normal;font-feature-settings:normal;text-indent:0;text-decoration:none;text-decoration-line:none;text-decoration-style:solid;text-decoration-color:#000001;text-transform:none;text-orientation:mixed;dominant-baseline:auto;white-space:normal;shape-padding:0;isolation:auto;mix-blend-mode:normal;solid-color:#000001;fill:url(#linearGradient2514);stroke-width:.26458332;color-rendering:auto;image-rendering:auto;shape-rendering:auto;fill-opacity:1" id="path15" d="m 4.4307857,292.50208 c -0.00311,6e-5 -0.00621,2.3e-4 -0.0093,5.2e-4 -0.00138,1.5e-4 -0.00276,3.2e-4 -0.00414,5.1e-4 -0.00122,1.6e-4 -0.00241,3.3e-4 -0.00362,5.2e-4 -0.00172,3.1e-4 -0.00345,6.5e-4 -0.00517,0.001 -0.00138,3.3e-4 -0.00276,6.7e-4 -0.00414,10e-4 -0.00419,10e-4 -0.00833,0.002 -0.012401,0.004 -0.00368,10e-4 -0.0073,0.003 -0.010853,0.004 -0.0019,8.2e-4 -0.00381,0.002 -0.00568,0.003 -0.00193,9.9e-4 -0.00382,0.002 -0.00568,0.003 -6.879e-4,3.4e-4 -0.00138,6.9e-4 -0.00206,10e-4 -0.00265,0.002 -0.00523,0.003 -0.00775,0.005 -0.00159,0.001 -0.00313,0.002 -0.00465,0.004 -0.00302,0.002 -0.00595,0.004 -0.00878,0.007 -0.00177,0.002 -0.00349,0.003 -0.00517,0.005 l -1.1276012,1.12448 c -0.00309,0.003 -0.00602,0.006 -0.00878,0.01 -0.00553,0.007 -0.010374,0.014 -0.01447,0.0217 -0.00209,0.004 -0.00399,0.008 -0.00569,0.0119 -0.00159,0.004 -0.00298,0.009 -0.00414,0.0129 -0.00124,0.004 -0.00228,0.008 -0.0031,0.0124 v 5.1e-4 c -0.00161,0.008 -0.00249,0.0161 -0.00259,0.0243 -2.9e-6,5.2e-4 -2.9e-6,0.001 0,0.002 L 3.175,296.07395 c 7.4e-6,0.073 0.059232,0.13228 0.1322916,0.13229 h 4.4979166 c 0.073059,-10e-6 0.1322838,-0.0592 0.1322917,-0.13229 l -1.77e-5,-3.43959 c -7.4e-6,-0.0731 -0.059232,-0.13228 -0.1322917,-0.13229 H 4.4343989 c -0.00122,-2e-5 -0.00241,-2e-5 -0.00362,0 z m 0.1359086,0.26458 h 3.1062083 l 1.77e-5,3.175 H 3.439587 l 1.77e-5,-2.05052 h 0.9948069 c 0.073059,0 0.1322837,-0.0592 0.1322917,-0.13229 z m -0.2645834,0.18656 3.55e-5,0.67333 H 3.6272208 Z" dominant-baseline="auto"/><path id="path2533" d="m 0.52916498,294.61875 v -0.52917 H 1.322915 v -0.79375 h 0.52917 v 0.79375 h 0.79375 v 0.52917 h -0.79375 v 0.79375 h -0.52917 v -0.79375 z" style="fill:url(#linearGradient2541);fill-opacity:1;stroke:none;stroke-width:.26458332px;stroke-linecap:butt;stroke-linejoin:miter;stroke-opacity:1"/></g></svg>